<svg width="28" height="28" viewBox="0 0 28 28" fill="none" xmlns="http://www.w3.org/2000/svg">
<path fill-rule="evenodd" clip-rule="evenodd" d="M2.5 14C2.5 7.64873 7.64873 2.5 14 2.5C20.3513 2.5 25.5 7.64873 25.5 14C25.5 20.3513 20.3513 25.5 14 25.5C7.64873 25.5 2.5 20.3513 2.5 14ZM17.0404 10.9597C17.431 11.3502 17.431 11.9834 17.0404 12.3739L15.4142 14.0001L17.0404 15.6264C17.431 16.0169 17.431 16.6501 17.0404 17.0406C16.6499 17.4311 16.0168 17.4311 15.6262 17.0406L14 15.4144L12.3738 17.0406C11.9833 17.4311 11.3501 17.4311 10.9596 17.0406C10.569 16.6501 10.569 16.0169 10.9596 15.6264L12.5858 14.0001L10.9596 12.3739C10.569 11.9834 10.569 11.3502 10.9596 10.9597C11.3501 10.5692 11.9832 10.5692 12.3738 10.9597L14 12.5859L15.6262 10.9597C16.0168 10.5692 16.6499 10.5692 17.0404 10.9597Z" fill="#A3BDDB"/>
</svg>
