<svg width="28" height="28" viewBox="0 0 28 28" fill="none" xmlns="http://www.w3.org/2000/svg">
<path fill-rule="evenodd" clip-rule="evenodd" d="M6.70711 5.29289C6.31658 4.90237 5.68342 4.90237 5.29289 5.29289C4.90237 5.68342 4.90237 6.31658 5.29289 6.70711L6.96376 8.37798C5.22988 9.71623 3.88808 11.5376 3.06851 13.6362C2.97716 13.8701 2.97716 14.1299 3.06851 14.3638C4.80329 18.8059 8.8839 22 14 22C15.9346 22 17.7307 21.5414 19.3095 20.7237L21.2929 22.7071C21.6834 23.0976 22.3166 23.0976 22.7071 22.7071C23.0976 22.3166 23.0976 21.6834 22.7071 21.2929L20.206 18.7918C20.1937 18.7788 20.181 18.7661 20.1681 18.7539L16.84 15.4258C16.8362 15.4219 16.8324 15.418 16.8285 15.4141C16.8246 15.4102 16.8208 15.4064 16.8169 15.4026L12.5974 11.1832C12.5936 11.1793 12.5898 11.1754 12.5859 11.1715C12.582 11.1676 12.5781 11.1638 12.5742 11.16L9.24504 7.83083C9.23269 7.81779 9.22003 7.80514 9.20709 7.79287L6.70711 5.29289ZM11.2924 12.7066C11.105 13.0982 11 13.5369 11 14C11 15.6569 12.3431 17 14 17C14.4631 17 14.9018 16.895 15.2934 16.7076L11.2924 12.7066ZM12.846 8.06646C13.222 8.02263 13.6069 8 14 8C18.0743 8 21.3807 10.4435 22.9189 14C22.5782 14.7873 22.1506 15.5201 21.6477 16.1836C21.3141 16.6238 21.4005 17.251 21.8407 17.5846C22.2808 17.9182 22.9081 17.8318 23.2417 17.3917C23.9346 16.4773 24.504 15.4585 24.9315 14.3638C25.0228 14.1299 25.0228 13.8701 24.9315 13.6362C23.1967 9.1941 19.1161 6 14 6C13.53 6 13.0678 6.02706 12.6144 6.07992C12.0659 6.14387 11.673 6.64042 11.737 7.18898C11.8009 7.73755 12.2975 8.13041 12.846 8.06646Z" fill="#A3BDDB"/>
</svg>
