<svg width="400" height="900" viewBox="0 0 400 900" fill="none" xmlns="http://www.w3.org/2000/svg">
<g clip-path="url(#clip0_2478_18412)">
<rect width="400" height="900" fill="#333232"/>
<g filter="url(#filter0_d_2478_18412)">
<g clip-path="url(#clip1_2478_18412)">
<rect x="-68.9961" y="881.733" width="335.597" height="227.726" transform="rotate(-74.721 -68.9961 881.733)" fill="#061B33"/>
<path d="M253.675 710.937C239.352 763.368 185.675 793.599 132.671 779.101C81.5918 765.129 51.2365 710.971 65.4204 659.117C79.5 607.645 133.593 576.922 185.241 591.052C237.089 605.236 267.837 659.097 253.675 710.937ZM210.369 726.564C210.654 724.854 210.889 724.026 210.913 723.202C211.241 712.779 209.603 702.612 204.433 693.565C200.905 687.392 198.234 681.692 201.533 674.697C202.014 673.681 201.927 672.399 202.09 671.235C205.37 647.712 199.696 626.596 185.069 607.888C184.439 607.036 183.546 606.417 182.527 606.126C178.135 604.776 173.62 603.864 169.048 603.404C123.969 599.126 85.1686 628.118 78.1385 672.69C72.9698 705.426 84.9355 732.089 110.99 752.462C111.893 753.177 112.832 753.827 114.096 753.989C135.197 756.683 153.6 751.307 168.772 735.969C170.266 734.46 170.535 733.228 169.779 731.222C163.28 713.925 152.837 699.499 138.451 687.942C137.783 687.404 137.208 686.416 135.93 686.706C136.804 696.234 134.164 704.244 125.556 709.34C120.185 712.523 113.161 712.874 109.323 710.485C120.353 702.386 123.467 694.706 121.007 681.146C120.23 676.85 118.943 672.646 118.18 668.353C116.349 658.139 122.399 647.373 131.368 645.248C134.036 644.617 135.128 643.483 135.958 640.984C138.034 634.687 142.305 630.475 148.961 629.038C149.652 628.89 150.494 628.387 151.109 628.974C151.851 629.685 150.91 630.308 150.704 630.944C149.879 633.485 149.081 636.029 148.769 638.696C146.887 654.749 153.241 667.465 165.137 677.638C170.548 682.261 176.547 686.203 182.31 690.413C194.851 699.563 205.36 710.321 210.369 726.564Z" fill="#113864"/>
</g>
</g>
<g filter="url(#filter1_d_2478_18412)">
<rect x="-43.1172" y="854.591" width="474.012" height="313.46" rx="35" transform="rotate(-39.975 -43.1172 854.591)" fill="#FA6400"/>
<g clip-path="url(#clip2_2478_18412)">
<path d="M87.2143 817.613C88.3455 818.962 88.8631 820.273 88.7669 821.546C88.6708 822.819 88.0475 823.947 86.8962 824.93C85.8558 825.802 84.7972 826.166 83.7197 826.022C82.6425 825.878 81.5889 825.192 80.5594 823.964L74.9621 817.288L71.7188 820.007L77.6833 827.121C79.4016 829.171 81.2186 830.257 83.1352 830.378C85.0513 830.499 86.9389 829.789 88.7972 828.248C89.6305 827.562 90.322 826.72 90.8331 825.769C91.3107 824.874 91.5796 823.882 91.6196 822.868L92.425 823.828C93.6149 825.248 94.1632 826.578 94.0698 827.82C93.9765 829.061 93.2202 830.277 91.801 831.467C91.0371 832.114 90.151 832.6 89.1954 832.897C88.1909 833.296 87.1205 833.504 86.0396 833.509L86.6339 837.169C88.0408 837.159 89.4287 836.846 90.7037 836.252C92.0171 835.736 93.2371 835.008 94.3152 834.097C99.1082 830.079 99.459 825.628 95.3682 820.746L85.2432 808.669L81.9972 811.39L87.2143 817.613Z" fill="white"/>
<path d="M103.099 793.698L105.202 806.703L92.9974 802.167L89.5977 805.018L101.222 818.883L104.183 816.4L96.4553 807.182L107.559 811.096L108.961 809.922L107.148 798.262L114.854 807.454L117.788 804.995L106.138 791.151L103.099 793.698Z" fill="white"/>
<path d="M126.024 780.049C124.501 779.507 122.856 779.4 121.276 779.741C119.597 780.134 118.034 780.915 116.712 782.023C115.391 783.13 114.349 784.533 113.67 786.118C113.057 787.614 112.875 789.252 113.145 790.846C113.435 792.498 114.169 794.039 115.268 795.305C116.327 796.61 117.719 797.605 119.296 798.184C120.82 798.737 122.47 798.849 124.055 798.505C125.734 798.115 127.299 797.334 128.62 796.226C129.942 795.118 130.984 793.714 131.661 792.128C132.274 790.628 132.452 788.986 132.177 787.389C131.881 785.735 131.144 784.192 130.045 782.921C128.989 781.619 127.6 780.628 126.026 780.052L126.024 780.049ZM128.225 789.773C128.075 791.204 127.375 792.519 126.274 793.443C125.172 794.367 123.754 794.826 122.32 794.724C120.881 794.572 119.618 793.848 118.531 792.552C117.445 791.255 116.951 789.885 117.051 788.44C117.201 787.01 117.901 785.694 119.003 784.77C120.105 783.846 121.522 783.387 122.957 783.489C124.404 783.634 125.673 784.354 126.763 785.651C127.853 786.948 128.34 788.322 128.225 789.773Z" fill="white"/>
<path d="M66.3303 832.043L65.2128 819.299L61.2599 822.613L61.98 831.184L53.6662 828.979L49.7641 832.25L62.2843 835.658L63.4489 849.562L67.3483 846.293L66.5721 836.661L75.9462 839.085L77.9908 837.371L78.4784 837.953L78.4834 837.948L81.484 841.527L84.369 839.109L78.9736 832.673L76.46 834.78L66.3303 832.043Z" fill="white"/>
<path d="M47.5846 877.708C37.8595 885.861 23.5382 884.518 15.2986 874.683C7.35811 865.205 8.74135 850.775 18.363 842.714C27.9139 834.713 42.3805 836.017 50.409 845.601C58.4686 855.222 57.2003 869.647 47.5846 877.708ZM37.1967 874.943C37.4789 874.653 37.6341 874.526 37.7484 874.371C39.1984 872.414 40.2371 870.246 40.449 867.822C40.5937 866.168 40.8399 864.719 42.4037 863.816C42.6311 863.686 42.7851 863.428 42.9712 863.226C46.7307 859.15 48.4521 854.344 48.1355 848.808C48.128 848.561 48.039 848.323 47.8823 848.132C47.2194 847.288 46.4745 846.512 45.6586 845.816C37.5792 838.996 26.277 839.395 18.9968 847.011C13.6489 852.603 12.3964 859.311 14.684 866.687C14.7621 866.944 14.8558 867.194 15.0767 867.393C18.7665 870.718 23.0125 872.136 27.9646 871.212C28.4519 871.121 28.6675 870.921 28.7894 870.435C29.8443 866.252 29.7607 862.095 28.5384 857.963C28.4819 857.771 28.503 857.505 28.2193 857.39C27.1191 859.335 25.5466 860.52 23.217 860.352C21.7629 860.248 20.3686 859.381 19.9503 858.412C23.1442 858.326 24.7636 857.267 26.0961 854.338C26.5188 853.41 26.8314 852.432 27.2561 851.507C28.2641 849.304 30.8574 848.043 32.861 848.829C33.4568 849.063 33.8172 848.991 34.3091 848.622C35.5454 847.69 36.9253 847.451 38.3934 848.06C38.5458 848.124 38.7742 848.14 38.814 848.334C38.8618 848.569 38.5985 848.564 38.4742 848.658C37.9778 849.036 37.4862 849.418 37.0715 849.888C34.574 852.717 34.1009 856.002 35.0295 859.537C35.4525 861.144 36.0788 862.699 36.6243 864.273C37.8126 867.698 38.3972 871.16 37.1967 874.943Z" fill="white"/>
</g>
<path d="M460.997 916.339C401.058 966.589 312.29 957.715 260.879 896.351C211.334 837.213 219.362 747.682 278.664 698C337.53 648.684 427.196 657.321 477.29 717.119C527.578 777.149 520.262 866.654 460.997 916.339ZM396.542 898.785C398.28 896.994 399.237 896.209 399.939 895.251C408.848 883.162 415.201 869.738 416.423 854.7C417.258 844.438 418.728 835.452 428.382 829.904C429.786 829.101 430.73 827.507 431.875 826.263C455.012 801.096 465.495 771.323 463.327 736.944C463.271 735.41 462.711 733.931 461.733 732.737C457.595 727.476 452.952 722.631 447.871 718.276C397.565 675.636 327.566 677.69 282.752 724.697C249.832 759.216 242.325 800.811 256.772 846.687C257.265 848.287 257.855 849.841 259.231 851.087C282.213 871.866 308.569 880.825 339.212 875.276C342.227 874.732 343.555 873.494 344.292 870.484C350.67 844.554 349.997 818.742 342.27 793.046C341.913 791.852 342.034 790.2 340.272 789.479C333.529 801.508 323.832 808.809 309.395 807.68C300.383 806.978 291.713 801.542 289.086 795.51C308.868 795.096 318.86 788.582 327.005 770.448C329.589 764.706 331.488 758.648 334.085 752.921C340.247 739.279 356.264 731.553 368.705 736.506C372.405 737.981 374.635 737.546 377.669 735.273C385.292 729.534 393.831 728.099 402.949 731.94C403.895 732.341 405.311 732.446 405.564 733.654C405.87 735.116 404.238 735.071 403.472 735.654C400.41 737.98 397.38 740.332 394.828 743.235C379.463 760.706 376.655 781.084 382.54 803.062C385.22 813.056 389.158 822.73 392.597 832.525C400.086 853.828 403.838 875.345 396.542 898.785Z" fill="#DA5904"/>
</g>
</g>
<defs>
<filter id="filter0_d_2478_18412" x="-90.5741" y="536.426" width="365.644" height="441.276" filterUnits="userSpaceOnUse" color-interpolation-filters="sRGB">
<feFlood flood-opacity="0" result="BackgroundImageFix"/>
<feColorMatrix in="SourceAlpha" type="matrix" values="0 0 0 0 0 0 0 0 0 0 0 0 0 0 0 0 0 0 127 0" result="hardAlpha"/>
<feOffset dx="7.19135" dy="7.19135"/>
<feGaussianBlur stdDeviation="14.3827"/>
<feComposite in2="hardAlpha" operator="out"/>
<feColorMatrix type="matrix" values="0 0 0 0 0 0 0 0 0 0 0 0 0 0 0 0 0 0 0.2 0"/>
<feBlend mode="normal" in2="BackgroundImageFix" result="effect1_dropShadow_2478_18412"/>
<feBlend mode="normal" in="SourceGraphic" in2="effect1_dropShadow_2478_18412" result="shape"/>
</filter>
<filter id="filter1_d_2478_18412" x="-71.5136" y="521.486" width="639.863" height="620.098" filterUnits="userSpaceOnUse" color-interpolation-filters="sRGB">
<feFlood flood-opacity="0" result="BackgroundImageFix"/>
<feColorMatrix in="SourceAlpha" type="matrix" values="0 0 0 0 0 0 0 0 0 0 0 0 0 0 0 0 0 0 127 0" result="hardAlpha"/>
<feOffset dx="9.83788" dy="9.83788"/>
<feGaussianBlur stdDeviation="19.6758"/>
<feComposite in2="hardAlpha" operator="out"/>
<feColorMatrix type="matrix" values="0 0 0 0 0 0 0 0 0 0 0 0 0 0 0 0 0 0 0.2 0"/>
<feBlend mode="normal" in2="BackgroundImageFix" result="effect1_dropShadow_2478_18412"/>
<feBlend mode="normal" in="SourceGraphic" in2="effect1_dropShadow_2478_18412" result="shape"/>
</filter>
<clipPath id="clip0_2478_18412">
<rect width="400" height="900" fill="white"/>
</clipPath>
<clipPath id="clip1_2478_18412">
<rect x="-69" y="881.734" width="335.597" height="227.726" rx="22.7282" transform="rotate(-74.721 -69 881.734)" fill="white"/>
</clipPath>
<clipPath id="clip2_2478_18412">
<rect width="146.902" height="45.5902" fill="white" transform="translate(0.824219 857.419) rotate(-39.975)"/>
</clipPath>
</defs>
</svg>
